HIERARCHY
ROOT Hips
{
  OFFSET 55.6936 97.1996 -10.3136
  CHANNELS 6 Xposition Yposition Zposition Zrotation Xrotation Yrotation
  JOINT spine
  {
    OFFSET 0 7.96568 0.458067
    CHANNELS 3 Zrotation Xrotation Yrotation
    JOINT spine1
    {
      OFFSET 0 10.2431 0
      CHANNELS 3 Zrotation Xrotation Yrotation
      JOINT spine2
      {
        OFFSET 0 9.81475 0
        CHANNELS 3 Zrotation Xrotation Yrotation
        JOINT Neck
        {
          OFFSET 0 25.1986 1.20138
          CHANNELS 3 Zrotation Xrotation Yrotation
          JOINT Head
          {
            OFFSET 0 7.61315 0
            CHANNELS 3 Zrotation Xrotation Yrotation
            End Site
            {
              OFFSET 0 18.4281 -6.07733
            }
          }
        }
        JOINT RightShoulder
        {
          OFFSET -4.1327 10.5992 -0.575451
          CHANNELS 3 Zrotation Xrotation Yrotation
          JOINT RightArm
          {
            OFFSET 0 13.9018 0
            CHANNELS 3 Zrotation Xrotation Yrotation
            JOINT RightArmRoll
            {
              OFFSET 0 7.01789 0
              CHANNELS 3 Zrotation Xrotation Yrotation
              JOINT RightForeArm
              {
                OFFSET 0 20.4406 0
                CHANNELS 3 Zrotation Xrotation Yrotation
                JOINT RightForeArmRoll
                {
                  OFFSET 0 7.87515 0
                  CHANNELS 3 Zrotation Xrotation Yrotation
                  JOINT RightHand
                  {
                    OFFSET 0 15.8037 0
                    CHANNELS 3 Zrotation Xrotation Yrotation
                    End Site
                    {
                      OFFSET 0 0 0
                    }
                  }
                }
              }
            }
          }
        }
        JOINT LeftShoulder
        {
          OFFSET 4.1327 10.5992 -0.575451
          CHANNELS 3 Zrotation Xrotation Yrotation
          JOINT LeftArm
          {
            OFFSET 0 13.9018 0
            CHANNELS 3 Zrotation Xrotation Yrotation
            JOINT LeftArmRoll
            {
              OFFSET 0 7.01789 0
              CHANNELS 3 Zrotation Xrotation Yrotation
              JOINT LeftForeArm
              {
                OFFSET 0 20.4406 0
                CHANNELS 3 Zrotation Xrotation Yrotation
                JOINT LeftForeArmRoll
                {
                  OFFSET 0 7.87516 0
                  CHANNELS 3 Zrotation Xrotation Yrotation
                  JOINT LeftHand
                  {
                    OFFSET 0 15.8037 0
                    CHANNELS 3 Zrotation Xrotation Yrotation
                    End Site
                    {
                      OFFSET 0 0 0
                    }
                  }
                }
              }
            }
          }
        }
      }
    }
  }
  JOINT RightUpLeg
  {
    OFFSET -7.06048 -1.2947 -1.0861
    CHANNELS 3 Zrotation Xrotation Yrotation
    JOINT RightUpLegRoll
    {
      OFFSET 0 18.5308 0
      CHANNELS 3 Zrotation Xrotation Yrotation
      JOINT RightLeg
      {
        OFFSET 0 -22.9476 0
        CHANNELS 3 Zrotation Xrotation Yrotation
        JOINT RightLegRoll
        {
          OFFSET 0 23.0226 0
          CHANNELS 3 Zrotation Xrotation Yrotation
          JOINT RightFoot
          {
            OFFSET 0 19.1625 0
            CHANNELS 3 Zrotation Xrotation Yrotation
            JOINT RightToeBase
            {
              OFFSET 0 16.0188 0
              CHANNELS 3 Zrotation Xrotation Yrotation
              End Site
              {
                OFFSET 0.00678979 7.75782 -0.894206
              }
            }
          }
        }
      }
    }
  }
  JOINT LeftUpLeg
  {
    OFFSET 7.06048 -1.2947 -1.0861
    CHANNELS 3 Zrotation Xrotation Yrotation
    JOINT LeftUpLegRoll
    {
      OFFSET 0 18.5309 0
      CHANNELS 3 Zrotation Xrotation Yrotation
      JOINT LeftLeg
      {
        OFFSET 0 22.9475 0
        CHANNELS 3 Zrotation Xrotation Yrotation
        JOINT LeftLegRoll
        {
          OFFSET 0 23.2355 0
          CHANNELS 3 Zrotation Xrotation Yrotation
          JOINT LeftFoot
          {
            OFFSET 0 18.9496 0
            CHANNELS 3 Zrotation Xrotation Yrotation
            JOINT LeftToeBase
            {
              OFFSET 0 16.0188 0
              CHANNELS 3 Zrotation Xrotation Yrotation
              End Site
              {
                OFFSET -0.0304289 7.75782 -0.894206
              }
            }
          }
        }
      }
    }
  }
}
MOTION
Frames: 6
Frame Time: 0.00208333
53.2275 96.8221 0.664287 0.744142 -6.5646 1.14816 0.321018 0.0385344 -0.308009 0.637004 4.07801 -0.657259 0.640885 5.72299 -0.668099 -7.12619 15.4935 1.1884 5.10691 6.26276 -0.629883 75.0879 -4.03552 -3.64927 97.15 24.8696 -23.9336 -3.0844e-006 -4.28115e-006 6.13566e-006 28.0628 38.5285 -10.8649 1.78767e-006 -3.83516e-006 -3.00096 8.02957 -4.9509 0.697286 -64.8803 0.0522274 0.71936 -109.764 21.7536 9.56095 1.75851e-005 -2.03059e-006 -3.13236e-007 -14.6028 26.15 4.58123 9.55409e-007 -1.21131e-007 3.00384 -8.02888 -4.95163 -0.697778 177.695 -2.53128 2.85865 180 7.01516e-015 178.796 178.733 9.10255 179.533 1.13523e-006 -4.47681e-006 0.133942 -18.7398 68.0033 19.546 8.12736 25.2332 -3.48385 -177.198 -2.64932 0.216911 4.5067e-006 -1.99009e-005 -1.22056 -0.794925 -10.4397 0.231986 6.49147e-006 -5.45111e-006 -0.17936 19.2269 68.5906 -20.0432 -8.12488 25.2333 3.48279 
53.226 96.8202 0.655507 0.73938 -6.52679 1.13102 0.322392 0.0406003 -0.308675 0.640231 4.08207 -0.658754 0.644496 5.72705 -0.669694 -7.1127 15.4169 1.20594 5.11757 6.21188 -0.600667 75.056 -4.02797 -3.64383 97.213 24.8743 -23.7398 -3.0844e-006 -4.28115e-006 6.13566e-006 27.95 38.3324 -10.7688 1.78767e-006 -3.83516e-006 -3.00096 8.02957 -4.9509 0.697286 -64.8599 0.0577785 0.713939 -109.765 21.7213 9.53014 1.75851e-005 -2.03059e-006 -3.13236e-007 -14.595 26.0456 4.56022 9.55409e-007 -1.21131e-007 3.00384 -8.02888 -4.95163 -0.697778 177.712 -2.45875 2.82946 180 7.01516e-015 178.797 178.755 9.14618 179.529 1.13523e-006 -4.47681e-006 0.133816 -18.7378 68.0008 19.5439 8.12736 25.2332 -3.48385 -177.204 -2.5719 0.228298 4.5067e-006 -1.99009e-005 -1.22054 -0.786879 -10.4985 0.234198 6.49147e-006 -5.45111e-006 -0.179299 19.2158 68.5776 -20.0312 -8.12488 25.2333 3.48279 
53.2248 96.8198 0.643467 0.734712 -6.48905 1.11386 0.323759 0.0426236 -0.30939 0.643451 4.08602 -0.660346 0.648115 5.731 -0.671388 -7.1 15.3415 1.22418 5.12968 6.15953 -0.57087 75.0228 -4.01981 -3.63805 97.2779 24.8775 -23.5451 -3.0844e-006 -4.28115e-006 6.13566e-006 27.8377 38.1365 -10.6735 1.78767e-006 -3.83516e-006 -3.00096 8.02957 -4.9509 0.697286 -64.8399 0.0635407 0.708442 -109.767 21.689 9.49826 1.75851e-005 -2.03059e-006 -3.13236e-007 -14.5864 25.9403 4.53893 9.55409e-007 -1.21131e-007 3.00384 -8.02888 -4.95163 -0.697778 177.729 -2.38733 2.80065 180 7.01516e-015 178.797 178.778 9.18786 179.525 1.13523e-006 -4.47681e-006 0.133629 -18.7355 67.998 19.5414 8.12736 25.2332 -3.48385 -177.21 -2.49575 0.239264 4.5067e-006 -1.99009e-005 -1.22052 -0.77932 -10.5552 0.236298 6.49147e-006 -5.45111e-006 -0.179196 19.2047 68.5647 -20.0193 -8.12488 25.2333 3.48279 
53.2259 96.8151 0.63439 0.730115 -6.45136 1.09669 0.32512 0.0446172 -0.310138 0.646666 4.08989 -0.662005 0.651738 5.73487 -0.673151 -7.08781 15.2667 1.24289 5.14282 6.10617 -0.540669 74.9887 -4.01123 -3.63202 97.3441 24.8794 -23.3496 -3.0844e-006 -4.28115e-006 6.13566e-006 27.7262 37.9408 -10.5789 1.78767e-006 -3.83516e-006 -3.00096 8.02957 -4.9509 0.697286 -64.8201 0.0694509 0.70289 -109.768 21.6568 9.46563 1.75851e-005 -2.03059e-006 -3.13236e-007 -14.5774 25.8344 4.51747 9.55409e-007 -1.21131e-007 3.00384 -8.02888 -4.95163 -0.697778 177.745 -2.31669 2.77213 180 7.01516e-015 178.797 178.8 9.22818 179.521 1.13523e-006 -4.47681e-006 0.133399 -18.7331 67.995 19.5388 8.12736 25.2332 -3.48385 -177.216 -2.42048 0.249935 4.5067e-006 -1.99009e-005 -1.2205 -0.772101 -10.6105 0.238319 6.49147e-006 -5.45111e-006 -0.179063 19.1936 68.5518 -20.0074 -8.12488 25.2333 3.48279 
53.2348 96.819 0.611716 0.72557 -6.41369 1.07952 0.326477 0.0465937 -0.310905 0.649879 4.09372 -0.663702 0.655364 5.73869 -0.674952 -7.07591 15.1924 1.26188 5.15659 6.05221 -0.510239 74.9541 -4.00241 -3.62584 97.4111 24.8806 -23.1539 -3.0844e-006 -4.28115e-006 6.13566e-006 27.6154 37.745 -10.4849 1.78767e-006 -3.83516e-006 -3.00096 8.02957 -4.9509 0.697286 -64.8004 0.0754455 0.697309 -109.77 21.6247 9.43257 1.75851e-005 -2.03059e-006 -3.13236e-007 -14.568 25.728 4.49593 9.55409e-007 -1.21131e-007 3.00384 -8.02888 -4.95163 -0.697778 177.762 -2.24649 2.74377 180 7.01516e-015 178.797 178.822 9.26768 179.517 1.13523e-006 -4.47681e-006 0.133145 -18.7306 67.9919 19.536 8.12736 25.2332 -3.48385 -177.222 -2.34572 0.260438 4.5067e-006 -1.99009e-005 -1.22048 -0.765075 -10.6649 0.240295 6.49147e-006 -5.45111e-006 -0.178913 19.1826 68.5389 -19.9955 -8.12488 25.2333 3.48279 
53.2239 96.8169 0.604462 0.721054 -6.37603 1.06235 0.327834 0.048566 -0.311678 0.653091 4.09753 -0.665409 0.658992 5.7425 -0.676764 -7.06404 15.1183 1.28093 5.17056 5.9981 -0.479758 74.9193 -3.99353 -3.61964 97.4783 24.8813 -22.958 -3.0844e-006 -4.28115e-006 6.13566e-006 27.5055 37.5491 -10.3916 1.78767e-006 -3.83516e-006 -3.00096 8.02957 -4.9509 0.697286 -64.7808 0.0814612 0.691719 -109.771 21.5926 9.39942 1.75851e-005 -2.03059e-006 -3.13236e-007 -14.5587 25.6216 4.47441 9.55409e-007 -1.21131e-007 3.00384 -8.02888 -4.95163 -0.697778 177.779 -2.17639 2.71546 180 7.01516e-015 178.798 178.844 9.30701 179.514 1.13523e-006 -4.47681e-006 0.132884 -18.728 67.9888 19.5333 8.12736 25.2332 -3.48385 -177.228 -2.27109 0.270898 4.5067e-006 -1.99009e-005 -1.22046 -0.758094 -10.7191 0.242261 6.49147e-006 -5.45111e-006 -0.178759 19.1715 68.5261 -19.9836 -8.12488 25.2333 3.48279 
